<mxfile host="Electron" modified="2023-08-06T14:03:08.723Z" agent="Mozilla/5.0 (Windows NT 10.0; Win64; x64) AppleWebKit/537.36 (KHTML, like Gecko) draw.io/21.6.5 Chrome/114.0.5735.243 Electron/25.3.1 Safari/537.36" etag="gzw_uX4l1JU8PlOTPOA7" version="21.6.5" type="device">
  <diagram name="Seite-1" id="uCbivFWIZqYeRfpQoSBv">
    <mxGraphModel dx="1219" dy="713" grid="1" gridSize="10" guides="1" tooltips="1" connect="1" arrows="1" fold="1" page="1" pageScale="1" pageWidth="827" pageHeight="1169" math="0" shadow="0">
      <root>
        <mxCell id="0" />
        <mxCell id="1" parent="0" />
        <mxCell id="XSH9jDENzEb3uRdyCkhu-12" value="fifo_aggregate" style="swimlane;whiteSpace=wrap;html=1;glass=0;fillColor=none;labelPosition=center;verticalLabelPosition=middle;align=center;verticalAlign=middle;" vertex="1" parent="1">
          <mxGeometry x="240" y="100" width="270" height="70" as="geometry">
            <mxRectangle x="240" y="110" width="120" height="30" as="alternateBounds" />
          </mxGeometry>
        </mxCell>
        <mxCell id="XSH9jDENzEb3uRdyCkhu-3" value="count 3" style="rounded=0;whiteSpace=wrap;html=1;" vertex="1" parent="XSH9jDENzEb3uRdyCkhu-12">
          <mxGeometry x="120" y="40" width="60" height="30" as="geometry" />
        </mxCell>
        <mxCell id="XSH9jDENzEb3uRdyCkhu-1" value="count 1" style="rounded=0;whiteSpace=wrap;html=1;" vertex="1" parent="1">
          <mxGeometry x="240" y="140" width="60" height="30" as="geometry" />
        </mxCell>
        <mxCell id="XSH9jDENzEb3uRdyCkhu-2" value="count 2" style="rounded=0;whiteSpace=wrap;html=1;" vertex="1" parent="1">
          <mxGeometry x="300" y="140" width="60" height="30" as="geometry" />
        </mxCell>
        <mxCell id="XSH9jDENzEb3uRdyCkhu-11" value="" style="edgeStyle=orthogonalEdgeStyle;rounded=0;orthogonalLoop=1;jettySize=auto;html=1;" edge="1" parent="1" source="XSH9jDENzEb3uRdyCkhu-4" target="XSH9jDENzEb3uRdyCkhu-5">
          <mxGeometry relative="1" as="geometry" />
        </mxCell>
        <mxCell id="XSH9jDENzEb3uRdyCkhu-4" value="" style="shape=curlyBracket;whiteSpace=wrap;html=1;rounded=1;flipH=1;labelPosition=right;verticalLabelPosition=middle;align=left;verticalAlign=middle;rotation=89;" vertex="1" parent="1">
          <mxGeometry x="275" y="140" width="20" height="90" as="geometry" />
        </mxCell>
        <mxCell id="XSH9jDENzEb3uRdyCkhu-27" value="" style="edgeStyle=orthogonalEdgeStyle;rounded=0;orthogonalLoop=1;jettySize=auto;html=1;" edge="1" parent="1" source="XSH9jDENzEb3uRdyCkhu-5" target="XSH9jDENzEb3uRdyCkhu-19">
          <mxGeometry relative="1" as="geometry" />
        </mxCell>
        <mxCell id="XSH9jDENzEb3uRdyCkhu-5" value="packet 1" style="rounded=0;whiteSpace=wrap;html=1;" vertex="1" parent="1">
          <mxGeometry x="240" y="240" width="90" height="30" as="geometry" />
        </mxCell>
        <mxCell id="XSH9jDENzEb3uRdyCkhu-6" value="" style="rounded=0;whiteSpace=wrap;html=1;" vertex="1" parent="1">
          <mxGeometry x="330" y="240" width="90" height="30" as="geometry" />
        </mxCell>
        <mxCell id="XSH9jDENzEb3uRdyCkhu-24" value="" style="edgeStyle=orthogonalEdgeStyle;rounded=0;orthogonalLoop=1;jettySize=auto;html=1;" edge="1" parent="1" source="XSH9jDENzEb3uRdyCkhu-9" target="XSH9jDENzEb3uRdyCkhu-23">
          <mxGeometry relative="1" as="geometry" />
        </mxCell>
        <mxCell id="XSH9jDENzEb3uRdyCkhu-9" value="count" style="rounded=0;whiteSpace=wrap;html=1;" vertex="1" parent="1">
          <mxGeometry x="240" y="40" width="60" height="30" as="geometry" />
        </mxCell>
        <mxCell id="XSH9jDENzEb3uRdyCkhu-13" value="xpm_fifo_async" style="swimlane;whiteSpace=wrap;html=1;glass=0;fillColor=none;labelPosition=center;verticalLabelPosition=middle;align=center;verticalAlign=middle;" vertex="1" parent="1">
          <mxGeometry x="240" y="200" width="270" height="70" as="geometry">
            <mxRectangle x="240" y="200" width="120" height="30" as="alternateBounds" />
          </mxGeometry>
        </mxCell>
        <mxCell id="XSH9jDENzEb3uRdyCkhu-26" value="&lt;font style=&quot;font-size: 17px;&quot;&gt;...&lt;/font&gt;" style="text;html=1;strokeColor=none;fillColor=none;align=center;verticalAlign=middle;whiteSpace=wrap;rounded=0;" vertex="1" parent="XSH9jDENzEb3uRdyCkhu-13">
          <mxGeometry x="180" y="30" width="30" height="40" as="geometry" />
        </mxCell>
        <mxCell id="XSH9jDENzEb3uRdyCkhu-18" value="fifo_x2byte" style="swimlane;whiteSpace=wrap;html=1;glass=0;fillColor=none;labelPosition=center;verticalLabelPosition=middle;align=center;verticalAlign=middle;" vertex="1" parent="1">
          <mxGeometry x="240" y="300" width="270" height="70" as="geometry">
            <mxRectangle x="240" y="110" width="120" height="30" as="alternateBounds" />
          </mxGeometry>
        </mxCell>
        <mxCell id="XSH9jDENzEb3uRdyCkhu-19" value="packet 1" style="rounded=0;whiteSpace=wrap;html=1;" vertex="1" parent="XSH9jDENzEb3uRdyCkhu-18">
          <mxGeometry y="40" width="90" height="30" as="geometry" />
        </mxCell>
        <mxCell id="XSH9jDENzEb3uRdyCkhu-20" value="" style="rounded=0;whiteSpace=wrap;html=1;" vertex="1" parent="XSH9jDENzEb3uRdyCkhu-18">
          <mxGeometry x="90" y="40" width="90" height="30" as="geometry" />
        </mxCell>
        <mxCell id="XSH9jDENzEb3uRdyCkhu-23" value="" style="whiteSpace=wrap;html=1;rounded=0;" vertex="1" parent="1">
          <mxGeometry x="420" y="140" width="60" height="30" as="geometry" />
        </mxCell>
        <mxCell id="XSH9jDENzEb3uRdyCkhu-25" value="&lt;font style=&quot;font-size: 17px;&quot;&gt;...&lt;/font&gt;" style="text;html=1;strokeColor=none;fillColor=none;align=center;verticalAlign=middle;whiteSpace=wrap;rounded=0;" vertex="1" parent="1">
          <mxGeometry x="480" y="130" width="30" height="40" as="geometry" />
        </mxCell>
        <mxCell id="XSH9jDENzEb3uRdyCkhu-33" value="" style="edgeStyle=orthogonalEdgeStyle;rounded=0;orthogonalLoop=1;jettySize=auto;html=1;" edge="1" parent="1" source="XSH9jDENzEb3uRdyCkhu-28" target="XSH9jDENzEb3uRdyCkhu-31">
          <mxGeometry relative="1" as="geometry">
            <Array as="points">
              <mxPoint x="260" y="415" />
            </Array>
          </mxGeometry>
        </mxCell>
        <mxCell id="XSH9jDENzEb3uRdyCkhu-28" value="" style="shape=curlyBracket;whiteSpace=wrap;html=1;rounded=1;flipH=1;labelPosition=right;verticalLabelPosition=middle;align=left;verticalAlign=middle;rotation=89;" vertex="1" parent="1">
          <mxGeometry x="250" y="365.44" width="20" height="40" as="geometry" />
        </mxCell>
        <mxCell id="XSH9jDENzEb3uRdyCkhu-31" value="byte 1" style="rounded=0;whiteSpace=wrap;html=1;" vertex="1" parent="1">
          <mxGeometry x="470" y="400" width="40" height="30" as="geometry" />
        </mxCell>
      </root>
    </mxGraphModel>
  </diagram>
</mxfile>
